<svg width="73" height="72" viewBox="0 0 73 72" fill="none" xmlns="http://www.w3.org/2000/svg">
<g id="icon_governance6">
<g id="Group 114">
<rect id="Rectangle 65" x="10.625" y="7.5" width="42.75" height="56.25" rx="8" fill="url(#paint0_linear_321_435)" fill-opacity="0.2"/>
<rect id="Rectangle 70" x="14.375" y="11.25" width="42" height="54" rx="8" fill="url(#paint1_linear_321_435)" fill-opacity="0.2"/>
<rect id="Rectangle 71" width="25.5" height="3" rx="1.5" transform="matrix(1 0 0 -1 22.625 25.5)" fill="url(#paint2_linear_321_435)" fill-opacity="0.2"/>
<rect id="Rectangle 72" width="25.5" height="3" rx="1.5" transform="matrix(1 0 0 -1 22.625 31.5)" fill="url(#paint3_linear_321_435)" fill-opacity="0.2"/>
<g id="Group 113">
<path id="Rectangle 68" d="M16.625 43.75C16.625 41.5409 18.4159 39.75 20.625 39.75H34.375C36.5841 39.75 38.375 41.5409 38.375 43.75V60.6762V67.5L34.0129 63.3944C32.1579 61.6484 29.7065 60.6762 27.1591 60.6762H20.625C18.4159 60.6762 16.625 58.8854 16.625 56.6762V43.75Z" fill="url(#paint4_linear_321_435)"/>
<path id="Vector" fill-rule="evenodd" clip-rule="evenodd" d="M27.8793 51.2595L30.405 53.7824C30.539 53.9163 30.7208 53.9915 30.9103 53.9915C31.0999 53.9915 31.2817 53.9163 31.4157 53.7824C31.5497 53.6485 31.625 53.4669 31.625 53.2776C31.625 53.0883 31.5497 52.9067 31.4157 52.7729L28.889 50.25L31.4152 47.7271C31.4815 47.6609 31.5341 47.5822 31.57 47.4956C31.6059 47.409 31.6244 47.3162 31.6244 47.2225C31.6243 47.1287 31.6058 47.0359 31.5699 46.9494C31.534 46.8628 31.4813 46.7841 31.415 46.7179C31.3486 46.6516 31.2698 46.5991 31.1831 46.5632C31.0964 46.5274 31.0035 46.5089 30.9097 46.5089C30.8159 46.509 30.723 46.5275 30.6363 46.5633C30.5496 46.5992 30.4709 46.6518 30.4045 46.7181L27.8793 49.241L25.3535 46.7181C25.2877 46.6499 25.2089 46.5955 25.1217 46.5581C25.0346 46.5206 24.9408 46.5009 24.846 46.5C24.7511 46.4992 24.657 46.5172 24.5692 46.553C24.4814 46.5889 24.4016 46.6418 24.3345 46.7088C24.2674 46.7757 24.2143 46.8554 24.1783 46.9431C24.1424 47.0308 24.1242 47.1247 24.125 47.2195C24.1258 47.3142 24.1455 47.4079 24.1829 47.495C24.2203 47.582 24.2747 47.6608 24.3429 47.7267L26.8695 50.25L24.3433 52.7733C24.2751 52.8392 24.2207 52.918 24.1833 53.005C24.1459 53.0921 24.1263 53.1858 24.1255 53.2805C24.1247 53.3753 24.1428 53.4692 24.1788 53.5569C24.2148 53.6446 24.2679 53.7243 24.335 53.7912C24.4021 53.8582 24.4819 53.9111 24.5697 53.947C24.6575 53.9828 24.7516 54.0008 24.8464 54C24.9413 53.9991 25.035 53.9794 25.1222 53.9419C25.2093 53.9045 25.2881 53.8501 25.354 53.7819L27.8793 51.2595Z" fill="white"/>
</g>
<g id="Group 112">
<path id="Rectangle 69" d="M63.125 38.5C63.125 36.2909 61.3341 34.5 59.125 34.5H45.375C43.1659 34.5 41.375 36.2909 41.375 38.5V54.8607V61.5L45.7584 57.4858C47.6023 55.7973 50.0118 54.8607 52.512 54.8607H59.125C61.3341 54.8607 63.125 53.0698 63.125 50.8607V38.5Z" fill="url(#paint5_linear_321_435)"/>
<path id="Vector_2" fill-rule="evenodd" clip-rule="evenodd" d="M57.6443 41.4872C57.792 41.639 57.875 41.8448 57.875 42.0593C57.875 42.2739 57.792 42.4797 57.6443 42.6315L51.7385 48.6971C51.6605 48.7773 51.5678 48.8409 51.4658 48.8843C51.3638 48.9277 51.2545 48.95 51.1442 48.95C51.0338 48.95 50.9245 48.9277 50.8225 48.8843C50.7205 48.8409 50.6278 48.7773 50.5498 48.6971L47.6155 45.684C47.5403 45.6093 47.4803 45.52 47.439 45.4213C47.3977 45.3226 47.3759 45.2164 47.375 45.1089C47.3741 45.0015 47.3941 44.8949 47.4337 44.7955C47.4733 44.696 47.5318 44.6057 47.6058 44.5297C47.6798 44.4537 47.7677 44.3936 47.8646 44.3529C47.9614 44.3122 48.0652 44.2917 48.1698 44.2927C48.2744 44.2936 48.3778 44.3159 48.4739 44.3584C48.57 44.4008 48.657 44.4624 48.7297 44.5397L51.1439 47.0193L56.5296 41.4872C56.6028 41.412 56.6897 41.3524 56.7853 41.3117C56.881 41.2709 56.9835 41.25 57.087 41.25C57.1905 41.25 57.293 41.2709 57.3886 41.3117C57.4843 41.3524 57.5711 41.412 57.6443 41.4872Z" fill="white"/>
</g>
</g>
</g>
<defs>
<linearGradient id="paint0_linear_321_435" x1="8.1957" y1="36.4241" x2="57.019" y2="36.4241" gradientUnits="userSpaceOnUse">
<stop stop-color="#EE2D82"/>
<stop offset="1" stop-color="#FCF3C3"/>
</linearGradient>
<linearGradient id="paint1_linear_321_435" x1="11.9883" y1="39.0172" x2="59.955" y2="39.0172" gradientUnits="userSpaceOnUse">
<stop stop-color="#EE2D82"/>
<stop offset="1" stop-color="#FCF3C3"/>
</linearGradient>
<linearGradient id="paint2_linear_321_435" x1="-1.44906" y1="1.54262" x2="27.6736" y2="1.54262" gradientUnits="userSpaceOnUse">
<stop stop-color="#EE2D82"/>
<stop offset="1" stop-color="#FCF3C3"/>
</linearGradient>
<linearGradient id="paint3_linear_321_435" x1="-1.44906" y1="1.54262" x2="27.6736" y2="1.54262" gradientUnits="userSpaceOnUse">
<stop stop-color="#EE2D82"/>
<stop offset="1" stop-color="#FCF3C3"/>
</linearGradient>
<linearGradient id="paint4_linear_321_435" x1="15.389" y1="50.5104" x2="40.2289" y2="50.5104" gradientUnits="userSpaceOnUse">
<stop stop-color="#FF55AA"/>
<stop offset="1" stop-color="#FCF3C3"/>
</linearGradient>
<linearGradient id="paint5_linear_321_435" x1="64.361" y1="44.9696" x2="39.5211" y2="44.9696" gradientUnits="userSpaceOnUse">
<stop stop-color="#FF55AA"/>
<stop offset="1" stop-color="#FCF3C3"/>
</linearGradient>
</defs>
</svg>
