<svg width="73" height="72" viewBox="0 0 73 72" fill="none" xmlns="http://www.w3.org/2000/svg">
<g id="icon_governance5">
<g id="Group 121">
<path id="Vector" d="M58.8977 43.2436C62.165 43.2436 65.1364 44.1308 67.3223 45.3811C68.4132 46.0049 69.3459 46.7413 70.0195 47.5416C70.6823 48.3278 71.1705 49.2687 71.1705 50.2748C71.1705 51.3551 70.61 52.2065 69.8027 52.8137C69.0391 53.389 68.0314 53.77 66.9609 54.0359C64.8091 54.569 61.9373 54.7492 58.8977 54.7492C55.8582 54.7492 52.9864 54.5703 50.8345 54.0359C49.7641 53.77 48.7564 53.389 47.9927 52.8137C47.1841 52.2052 46.625 51.3551 46.625 50.2748C46.625 49.2687 47.1132 48.3278 47.7759 47.5403C48.4495 46.7413 49.3809 46.0062 50.4732 45.3798C52.6591 44.1321 55.6318 43.2436 58.8977 43.2436ZM58.8977 29.1811C60.706 29.1811 62.4403 29.8545 63.7189 31.0532C64.9976 32.252 65.7159 33.8778 65.7159 35.5731C65.7159 37.2684 64.9976 38.8942 63.7189 40.093C62.4403 41.2917 60.706 41.9652 58.8977 41.9652C57.0894 41.9652 55.3552 41.2917 54.0765 40.093C52.7979 38.8942 52.0795 37.2684 52.0795 35.5731C52.0795 33.8778 52.7979 32.252 54.0765 31.0532C55.3552 29.8545 57.0894 29.1811 58.8977 29.1811Z" fill="url(#paint0_linear_321_426)" fill-opacity="0.5"/>
<path id="Vector_2" d="M13.3864 43.2436C16.5175 43.2436 19.3651 44.1308 21.4599 45.3811C22.5053 46.0049 23.3992 46.7413 24.0448 47.5416C24.6799 48.3278 25.1477 49.2687 25.1477 50.2748C25.1477 51.3551 24.6106 52.2065 23.837 52.8137C23.1052 53.389 22.1394 53.77 21.1136 54.0359C19.0514 54.569 16.2993 54.7492 13.3864 54.7492C10.4735 54.7492 7.72131 54.5703 5.65915 54.0359C4.6333 53.77 3.66756 53.389 2.93574 52.8137C2.1608 52.2052 1.625 51.3551 1.625 50.2748C1.625 49.2687 2.09284 48.3278 2.72795 47.5403C3.37352 46.7413 4.26608 46.0062 5.31284 45.3798C7.40767 44.1321 10.2565 43.2436 13.3864 43.2436ZM13.3864 29.1811C15.1193 29.1811 16.7813 29.8545 18.0067 31.0532C19.232 32.252 19.9205 33.8778 19.9205 35.5731C19.9205 37.2684 19.232 38.8942 18.0067 40.093C16.7813 41.2917 15.1193 41.9652 13.3864 41.9652C11.6534 41.9652 9.99144 41.2917 8.76606 40.093C7.54068 38.8942 6.85227 37.2684 6.85227 35.5731C6.85227 33.8778 7.54068 32.252 8.76606 31.0532C9.99144 29.8545 11.6534 29.1811 13.3864 29.1811Z" fill="url(#paint1_linear_321_426)" fill-opacity="0.3"/>
<path id="Vector_3" d="M35.8863 40.125C40.5755 40.125 44.8399 41.4263 47.9771 43.26C49.5428 44.175 50.8814 45.255 51.8482 46.4287C52.7993 47.5819 53.5 48.9619 53.5 50.4375C53.5 52.0219 52.6956 53.2706 51.537 54.1613C50.4411 55.005 48.9948 55.5637 47.4585 55.9538C44.3702 56.7356 40.2487 57 35.8863 57C31.524 57 27.4024 56.7375 24.3142 55.9538C22.7779 55.5637 21.3316 55.005 20.2356 54.1613C19.0751 53.2687 18.2727 52.0219 18.2727 50.4375C18.2727 48.9619 18.9733 47.5819 19.9245 46.4269C20.8913 45.255 22.2279 44.1769 23.7956 43.2581C26.9327 41.4281 31.1992 40.125 35.8863 40.125ZM35.8863 19.5C38.4816 19.5 40.9705 20.4877 42.8056 22.2459C44.6407 24.004 45.6717 26.3886 45.6717 28.875C45.6717 31.3614 44.6407 33.746 42.8056 35.5041C40.9705 37.2623 38.4816 38.25 35.8863 38.25C33.2911 38.25 30.8022 37.2623 28.9671 35.5041C27.1319 33.746 26.101 31.3614 26.101 28.875C26.101 26.3886 27.1319 24.004 28.9671 22.2459C30.8022 20.4877 33.2911 19.5 35.8863 19.5Z" fill="url(#paint2_linear_321_426)"/>
</g>
</g>
<defs>
<linearGradient id="paint0_linear_321_426" x1="45.2302" y1="42.3284" x2="73.2627" y2="42.3284" gradientUnits="userSpaceOnUse">
<stop stop-color="#EE2D82"/>
<stop offset="1" stop-color="#FCF3C3"/>
</linearGradient>
<linearGradient id="paint1_linear_321_426" x1="0.288303" y1="42.3284" x2="27.1528" y2="42.3284" gradientUnits="userSpaceOnUse">
<stop stop-color="#EE2D82"/>
<stop offset="1" stop-color="#FCF3C3"/>
</linearGradient>
<linearGradient id="paint2_linear_321_426" x1="16.2709" y1="38.7827" x2="56.5027" y2="38.7827" gradientUnits="userSpaceOnUse">
<stop stop-color="#EE2D82"/>
<stop offset="1" stop-color="#FCF3C3"/>
</linearGradient>
</defs>
</svg>
