<svg width="73" height="72" viewBox="0 0 73 72" fill="none" xmlns="http://www.w3.org/2000/svg">
<rect x="12.1523" y="28.3802" width="46.4725" height="33.8698" rx="4" fill="url(#paint0_linear_321_363)" fill-opacity="0.5"/>
<rect x="23.375" y="21.4937" width="23.9488" height="15.7597" transform="rotate(-45 23.375 21.4937)" fill="url(#paint1_linear_321_363)" fill-opacity="0.5"/>
<path d="M12.1523 41.2975H58.6249V32.6232C58.6249 30.414 56.834 28.6232 54.6249 28.6232H16.1523C13.9432 28.6232 12.1523 30.414 12.1523 32.6232V41.2975Z" fill="url(#paint2_linear_321_363)" fill-opacity="0.5"/>
<rect x="23.9817" y="24.7064" width="24.3339" height="15.2092" transform="rotate(-45 23.9817 24.7064)" fill="url(#paint3_linear_321_363)"/>
<path d="M24.8267 34.5385H45.1056" stroke="#17283B" stroke-width="3" stroke-linecap="round"/>
<path d="M42.3402 27.0352C42.3072 27.0682 42.2693 27.0731 42.2264 27.05L37.8607 24.7237L37.836 24.7088C37.803 24.6758 37.8046 24.6412 37.8409 24.6049L38.4646 23.9812C38.5009 23.9449 38.5405 23.9383 38.5834 23.9614L41.6572 25.7186C41.6704 25.7252 41.6803 25.7252 41.6869 25.7186C41.6935 25.712 41.6935 25.7021 41.6869 25.6889L39.9198 22.625C39.8967 22.5821 39.9033 22.5425 39.9396 22.5062L40.5484 21.8974C40.5682 21.8776 40.5897 21.8693 40.6128 21.8726C40.6359 21.8759 40.654 21.8908 40.6672 21.9172L42.9787 26.2977C43.0018 26.3406 42.9969 26.3785 42.9639 26.4115L42.3402 27.0352ZM45.6213 23.8631C45.3639 24.1204 45.0834 24.2953 44.7798 24.3877C44.4795 24.4768 44.1809 24.4818 43.8839 24.4026C43.5836 24.3201 43.3097 24.1551 43.0622 23.9076L42.003 22.8484C41.7588 22.6042 41.5971 22.3336 41.5179 22.0366C41.4387 21.7396 41.4453 21.4426 41.5377 21.1456C41.6301 20.8421 41.805 20.5616 42.0624 20.3042C42.3231 20.0435 42.6036 19.8686 42.9038 19.7795C43.2041 19.6838 43.5028 19.6756 43.7997 19.7548C44.0967 19.834 44.3673 19.9957 44.6115 20.2398L45.6708 21.2991C45.9182 21.5466 46.0832 21.8205 46.1657 22.1207C46.2482 22.421 46.2433 22.723 46.1509 23.0266C46.0585 23.3235 45.8819 23.6024 45.6213 23.8631ZM45.0223 23.2641C45.2038 23.0826 45.2929 22.8781 45.2896 22.6504C45.2863 22.4227 45.189 22.2131 44.9976 22.0218L43.9086 20.9328C43.7173 20.7414 43.5077 20.6441 43.28 20.6408C43.0523 20.6309 42.8461 20.7183 42.6613 20.9031C42.4798 21.0846 42.3924 21.2908 42.399 21.5218C42.4056 21.7462 42.5046 21.9541 42.696 22.1455L43.7849 23.2344C43.9763 23.4258 44.1842 23.5248 44.4086 23.5314C44.6363 23.5347 44.8408 23.4456 45.0223 23.2641ZM46.2958 16.15C46.3123 16.1335 46.3321 16.1269 46.3552 16.1302C46.3783 16.1269 46.3981 16.1335 46.4146 16.15L46.8997 16.635C46.9162 16.6515 46.9244 16.673 46.9244 16.6994C46.9244 16.7192 46.9162 16.7373 46.8997 16.7538L46.0137 17.6398C45.9972 17.6563 45.9972 17.6728 46.0137 17.6893L48.7905 20.4661C48.807 20.4826 48.8152 20.5041 48.8152 20.5305C48.8152 20.5503 48.807 20.5684 48.7905 20.5849L48.2114 21.1641C48.1949 21.1806 48.1751 21.1905 48.152 21.1938C48.1289 21.1905 48.1091 21.1806 48.0926 21.1641L45.3158 18.3872C45.2993 18.3707 45.2828 18.3707 45.2663 18.3872L44.405 19.2485C44.3885 19.265 44.3687 19.2749 44.3456 19.2782C44.3225 19.2749 44.3027 19.265 44.2862 19.2485L43.8011 18.7634C43.7846 18.7469 43.7764 18.7288 43.7764 18.709C43.7764 18.6826 43.7846 18.6611 43.8011 18.6446L46.2958 16.15ZM45.8496 27.5747C45.8661 27.5912 45.8743 27.6127 45.8743 27.6391C45.8743 27.6589 45.8661 27.677 45.8496 27.6935L44.2261 29.317C44.2096 29.3335 44.2096 29.35 44.2261 29.3665L44.9933 30.1337C45.0098 30.1502 45.0263 30.1502 45.0428 30.1337L46.107 29.0695C46.1235 29.053 46.1433 29.0464 46.1664 29.0497C46.1895 29.0464 46.2093 29.053 46.2258 29.0695L46.7059 29.5497C46.7224 29.5662 46.7307 29.5876 46.7307 29.614C46.7307 29.6338 46.7224 29.652 46.7059 29.6685L45.6417 30.7327C45.6252 30.7492 45.6252 30.7656 45.6417 30.7821L46.4436 31.584C46.4601 31.6005 46.4766 31.6005 46.4931 31.584L48.1166 29.9605C48.1331 29.944 48.1529 29.9374 48.176 29.9407C48.1991 29.9374 48.2189 29.944 48.2354 29.9605L48.7155 30.4406C48.732 30.4571 48.7403 30.4786 48.7403 30.505C48.7403 30.5248 48.732 30.5429 48.7155 30.5594L46.4287 32.8462C46.4122 32.8627 46.3924 32.8726 46.3693 32.8759C46.3462 32.8726 46.3264 32.8627 46.3099 32.8462L42.9639 29.5002C42.9474 29.4837 42.9391 29.4655 42.9391 29.4457C42.9391 29.4193 42.9474 29.3979 42.9639 29.3814L45.2507 27.0946C45.2672 27.0781 45.287 27.0715 45.3101 27.0748C45.3332 27.0715 45.353 27.0781 45.3695 27.0946L45.8496 27.5747Z" fill="#17283B"/>
<defs>
<linearGradient id="paint0_linear_321_363" x1="9.51151" y1="45.7963" x2="62.5862" y2="45.7963" gradientUnits="userSpaceOnUse">
<stop stop-color="#EE2D82"/>
<stop offset="1" stop-color="#FCF3C3"/>
</linearGradient>
<linearGradient id="paint1_linear_321_363" x1="22.0141" y1="29.5975" x2="49.3651" y2="29.5975" gradientUnits="userSpaceOnUse">
<stop stop-color="#EE2D82"/>
<stop offset="1" stop-color="#FCF3C3"/>
</linearGradient>
<linearGradient id="paint2_linear_321_363" x1="9.51151" y1="34.7803" x2="62.5862" y2="34.7803" gradientUnits="userSpaceOnUse">
<stop stop-color="#EE2D82"/>
<stop offset="1" stop-color="#FCF3C3"/>
</linearGradient>
<linearGradient id="paint3_linear_321_363" x1="22.5989" y1="32.5271" x2="50.3898" y2="32.5271" gradientUnits="userSpaceOnUse">
<stop stop-color="#EE2D82"/>
<stop offset="1" stop-color="#FCF3C3"/>
</linearGradient>
</defs>
</svg>
