<svg width="73" height="72" viewBox="0 0 73 72" fill="none" xmlns="http://www.w3.org/2000/svg">
<g id="icon_governance4">
<g id="Group 111">
<rect id="Rectangle 65" x="46.4966" y="-4.54846" width="43.6688" height="72.2772" rx="21.8344" transform="rotate(45 46.4966 -4.54846)" fill="url(#paint0_linear_321_410)" fill-opacity="0.2"/>
<rect id="Rectangle 67" x="46.146" y="9.24805" width="24.6522" height="52.2688" rx="12.3261" transform="rotate(45 46.146 9.24805)" fill="url(#paint1_linear_321_410)" fill-opacity="0.2"/>
<path id="Vector" fill-rule="evenodd" clip-rule="evenodd" d="M35.0583 25.735C34.821 25.7718 34.5962 25.8662 34.4037 26.01C34.2113 26.1537 34.0569 26.3424 33.9542 26.5596C33.4804 27.5814 33.1876 28.6777 33.089 29.7997C33.0695 30.0387 33.1087 30.279 33.2034 30.4994C33.2981 30.7198 33.4452 30.9137 33.6321 31.0642C34.202 31.5309 34.6109 32.1228 34.7926 32.8029C34.9757 33.483 34.9172 34.201 34.6563 34.89C34.5698 35.1141 34.5395 35.356 34.5681 35.5946C34.5966 35.8331 34.6832 36.0611 34.8202 36.2584C35.4677 37.1779 36.2687 37.9789 37.1881 38.6264C37.6218 38.932 38.1421 38.9471 38.5572 38.7909C39.2456 38.5293 39.9642 38.4715 40.6443 38.6532C41.3244 38.8363 41.9157 39.2445 42.3824 39.8144C42.6625 40.1566 43.1196 40.4044 43.6469 40.3576C44.7689 40.259 45.8652 39.9662 46.8869 39.4923C47.1039 39.3896 47.2925 39.2354 47.4361 39.043C47.5798 38.8507 47.6741 38.6261 47.7109 38.3889C47.83 37.6613 48.1384 37.0101 48.6367 36.5117C49.1351 36.0134 49.7856 35.7057 50.5132 35.5866C50.951 35.515 51.3942 35.2424 51.6173 34.762C52.0911 33.7402 52.3839 32.6439 52.4825 31.5219C52.5293 30.9946 52.2829 30.5376 51.9394 30.2574C51.3695 29.7907 50.9599 29.1994 50.7789 28.5186C50.5958 27.8385 50.655 27.1213 50.9158 26.4323C51.0721 26.0186 51.057 25.4968 50.7513 25.0631C50.1038 24.1437 49.3028 23.3427 48.3834 22.6952C48.186 22.5582 47.9581 22.4717 47.7196 22.4431C47.481 22.4145 47.2391 22.4448 47.015 22.5314C46.3259 22.7923 45.608 22.8508 44.9272 22.6684C44.2471 22.4866 43.6558 22.0771 43.1891 21.5071C43.0386 21.3203 42.8447 21.1732 42.6243 21.0786C42.4039 20.9839 42.1637 20.9446 41.9246 20.964C40.8026 21.0626 39.7063 21.3554 38.6846 21.8293C38.4676 21.932 38.2791 22.0863 38.1355 22.2786C37.9919 22.4709 37.8975 22.6955 37.8606 22.9327C37.7402 23.6603 37.4325 24.3121 36.9348 24.8098C36.4371 25.3075 35.7859 25.6159 35.0583 25.735ZM40.7207 32.7258C40.173 32.1781 39.8653 31.4353 39.8653 30.6608C39.8653 29.8862 40.173 29.1434 40.7207 28.5957C41.2684 28.048 42.0112 27.7404 42.7858 27.7404C43.5603 27.7404 44.3031 28.048 44.8508 28.5957C45.3985 29.1434 45.7062 29.8862 45.7062 30.6608C45.7062 31.4353 45.3985 32.1781 44.8508 32.7258C44.3031 33.2735 43.5603 33.5812 42.7858 33.5812C42.0112 33.5812 41.2684 33.2735 40.7207 32.7258Z" fill="url(#paint2_linear_321_410)" fill-opacity="0.6"/>
<path id="Vector_2" fill-rule="evenodd" clip-rule="evenodd" d="M21.6264 42.65C21.4601 42.7663 21.3249 42.9216 21.2325 43.1022C21.14 43.2828 21.0933 43.4834 21.0962 43.6863C21.1173 44.6374 21.3035 45.5776 21.6463 46.4649C21.7205 46.6535 21.8398 46.821 21.9936 46.9529C22.1474 47.0847 22.3312 47.177 22.5288 47.2215C23.1347 47.3632 23.6651 47.6598 24.056 48.1078C24.448 48.5553 24.6709 49.1214 24.7296 49.7409C24.7475 49.9431 24.8145 50.1378 24.925 50.308C25.0354 50.4782 25.1859 50.6188 25.3632 50.7175C26.1964 51.1735 27.1019 51.4827 28.0401 51.6313C28.4826 51.7016 28.8828 51.5194 29.1394 51.2464C29.5639 50.7918 30.0872 50.4805 30.6705 50.3651C31.2543 50.2507 31.8546 50.3401 32.4206 50.5985C32.7604 50.7536 33.1991 50.7714 33.5815 50.5396C34.3955 50.0472 35.1177 49.4171 35.716 48.6774C35.8423 48.5188 35.9278 48.3317 35.9651 48.1324C36.0024 47.9331 35.9903 47.7277 35.9299 47.5341C35.7494 46.9381 35.7408 46.3296 35.9331 45.7662C36.1254 45.2029 36.5041 44.7274 37.0114 44.3663C37.3167 44.149 37.5513 43.7773 37.5416 43.33C37.5205 42.3789 37.3344 41.4387 36.9915 40.5514C36.8307 40.1342 36.4737 39.8793 36.109 39.7948C35.5031 39.6531 34.9725 39.3573 34.5818 38.9085C34.1898 38.461 33.9677 37.8952 33.909 37.2756C33.8734 36.9038 33.6677 36.5138 33.2746 36.2988C32.4414 35.8428 31.5359 35.5337 30.5978 35.385C30.3971 35.3546 30.1921 35.3738 30.0006 35.4409C29.8091 35.5081 29.637 35.6211 29.4992 35.7702C29.0739 36.2245 28.5514 36.5361 27.9673 36.6512C27.384 36.7666 26.7832 36.6762 26.2172 36.4178C26.0336 36.3322 25.8318 36.2928 25.6295 36.3031C25.4271 36.3134 25.2303 36.373 25.0563 36.4767C24.2424 36.9691 23.5201 37.5992 22.9218 38.3389C22.7956 38.4975 22.7101 38.6847 22.6728 38.8839C22.6355 39.0832 22.6475 39.2886 22.7079 39.4822C22.8874 40.0787 22.8968 40.6875 22.7047 41.2501C22.5126 41.8127 22.1337 42.2889 21.6264 42.65ZM28.5219 45.8426C27.9028 45.6312 27.393 45.1825 27.1047 44.5953C26.8163 44.008 26.7731 43.3303 26.9845 42.7112C27.1958 42.092 27.6445 41.5822 28.2318 41.2939C28.819 41.0056 29.4967 40.9623 30.1159 41.1737C30.735 41.3851 31.2448 41.8337 31.5331 42.421C31.8215 43.0083 31.8647 43.686 31.6533 44.3051C31.442 44.9242 30.9933 45.434 30.406 45.7224C29.8188 46.0107 29.1411 46.0539 28.5219 45.8426Z" fill="url(#paint3_linear_321_410)" fill-opacity="0.6"/>
<g id="Group 109">
<path id="Rectangle 67_2" d="M23.584 25.5919L14.1883 34.9875C7.6573 41.5185 7.6573 52.1074 14.1883 58.6384V58.6384C20.7193 65.1694 31.3082 65.1694 37.8392 58.6384L47.2349 49.2428" stroke="url(#paint4_linear_321_410)" stroke-width="3"/>
<path id="Polygon 8" d="M25.8576 23.1669L24.1319 29.6075L19.417 24.8926L25.8576 23.1669Z" fill="#EF3785"/>
</g>
<g id="Group 110">
<path id="Rectangle 66" d="M26.1482 23.0274L34.925 14.2506C41.4561 7.71958 52.0449 7.71957 58.5759 14.2506V14.2506C65.107 20.7816 65.107 31.3705 58.5759 37.9015L49.7991 46.6783" stroke="url(#paint5_linear_321_410)" stroke-width="3"/>
<path id="Polygon 9" d="M48.0387 48.3785L49.7924 41.8336L54.5836 46.6248L48.0387 48.3785Z" fill="#FCE4BE"/>
</g>
</g>
</g>
<defs>
<linearGradient id="paint0_linear_321_410" x1="44.0151" y1="32.6169" x2="93.8876" y2="32.6169" gradientUnits="userSpaceOnUse">
<stop stop-color="#EE2D82"/>
<stop offset="1" stop-color="#FCF3C3"/>
</linearGradient>
<linearGradient id="paint1_linear_321_410" x1="44.7451" y1="36.125" x2="72.8995" y2="36.125" gradientUnits="userSpaceOnUse">
<stop stop-color="#EE2D82"/>
<stop offset="1" stop-color="#FCF3C3"/>
</linearGradient>
<linearGradient id="paint2_linear_321_410" x1="35.3057" y1="38.5126" x2="51.0287" y2="22.7896" gradientUnits="userSpaceOnUse">
<stop stop-color="#EE2D82"/>
<stop offset="1" stop-color="#FCF3C3"/>
</linearGradient>
<linearGradient id="paint3_linear_321_410" x1="26.5705" y1="52.2458" x2="32.6385" y2="34.4718" gradientUnits="userSpaceOnUse">
<stop stop-color="#EE2D82"/>
<stop offset="1" stop-color="#FCF3C3"/>
</linearGradient>
<linearGradient id="paint4_linear_321_410" x1="21.637" y1="24.8509" x2="48.6479" y2="51.8617" gradientUnits="userSpaceOnUse">
<stop stop-color="#EE2D82"/>
<stop offset="1" stop-color="#FCF3C3"/>
</linearGradient>
<linearGradient id="paint5_linear_321_410" x1="24.2188" y1="22.2688" x2="51.2297" y2="49.2797" gradientUnits="userSpaceOnUse">
<stop stop-color="#EE2D82"/>
<stop offset="1" stop-color="#FCF3C3"/>
</linearGradient>
</defs>
</svg>
