<svg width="73" height="72" viewBox="0 0 73 72" fill="none" xmlns="http://www.w3.org/2000/svg">
<g id="img_feature2">
<g id="Group 118">
<g id="Group 117">
<path id="Rectangle 77" d="M28.5275 35.6205C30.138 34.3413 32.4561 34.4919 33.8875 35.9687L36.6946 38.8646C38.152 40.3682 38.2032 42.7414 36.8119 44.3063L18.4086 65.0068C16.8464 66.764 14.1128 66.8012 12.5033 65.0872L6.4746 58.6672C4.87312 56.9618 5.07072 54.2519 6.90265 52.7968L28.5275 35.6205Z" fill="url(#paint0_linear_321_577)" fill-opacity="0.2"/>
<path id="Rectangle 78" d="M30.8012 38.5315C32.3875 36.994 34.9198 37.0334 36.4574 38.6197L36.6931 38.8629C38.1511 40.3671 38.2017 42.7413 36.809 44.3062L18.3465 65.0511C16.8067 66.7812 14.1239 66.846 12.5024 65.1923L10.8329 63.4897C9.28001 61.9058 9.31236 59.3608 10.9051 57.817L30.8012 38.5315Z" fill="url(#paint1_linear_321_577)" fill-opacity="0.2"/>
<path id="Rectangle 79" d="M35.2302 40.1777C36.0094 39.4224 37.2534 39.4418 38.0087 40.2211C38.725 40.96 38.7498 42.1263 38.0656 42.895L17.694 65.7847C16.5057 67.1198 14.4367 67.1738 13.1805 65.9025C11.9709 64.6783 11.9922 62.7025 13.2279 61.5047L35.2302 40.1777Z" fill="url(#paint2_linear_321_577)" fill-opacity="0.2"/>
</g>
<path id="Vector" fill-rule="evenodd" clip-rule="evenodd" d="M67.3013 5.57574C67.8871 6.15873 68.2748 6.91222 68.4123 7.72621C69.2208 12.4314 70.2191 22.0123 65.9208 26.316C61.0533 31.1779 42.587 41.4876 36.7405 44.694C36.223 44.9769 35.6274 45.0834 35.0439 44.9976C34.4604 44.9118 33.9207 44.6382 33.5065 44.2183L31.081 41.7983L28.6693 39.3674C28.2491 38.9527 27.9754 38.4126 27.8896 37.8286C27.8038 37.2446 27.9105 36.6486 28.1935 36.1306C31.3973 30.2842 41.7043 11.8182 46.569 6.95072C50.8646 2.65252 60.4456 3.65626 65.1508 4.46475C65.9648 4.60225 66.7183 4.98999 67.3013 5.57574ZM26.2437 16.3336L37.2438 15.3959L29.8463 27.7157L21.9895 26.7972C21.4835 26.7274 21.0071 26.5175 20.6142 26.1912C20.2212 25.8648 19.9273 25.4351 19.7657 24.9506C19.6041 24.4661 19.5812 23.946 19.6996 23.4491C19.818 22.9523 20.073 22.4984 20.4357 22.1388L26.2437 16.3336ZM57.4756 35.6384L56.5406 46.6383L50.7353 52.449C50.3753 52.8085 49.9223 53.0607 49.427 53.1772C48.9317 53.2937 48.4138 53.27 47.9313 53.1087C47.4487 52.9474 47.0207 52.6548 46.695 52.2639C46.3694 51.8729 46.1592 51.399 46.0878 50.8952L44.9273 43.1761L57.4756 35.6384ZM59.7856 18.5611C59.7856 20.0125 59.209 21.4044 58.1827 22.4307C57.1564 23.457 55.7645 24.0335 54.3131 24.0335C52.8617 24.0335 51.4697 23.457 50.4434 22.4307C49.4171 21.4044 48.8405 20.0125 48.8405 18.5611C48.8405 17.1097 49.4171 15.7178 50.4434 14.6915C51.4697 13.6652 52.8617 13.0887 54.3131 13.0887C55.7645 13.0887 57.1564 13.6652 58.1827 14.6915C59.209 15.7178 59.7856 17.1097 59.7856 18.5611Z" fill="url(#paint3_linear_321_577)"/>
</g>
</g>
<defs>
<linearGradient id="paint0_linear_321_577" x1="17.7224" y1="45.6928" x2="26.7606" y2="55.0172" gradientUnits="userSpaceOnUse">
<stop stop-color="#EE2D82"/>
<stop offset="1" stop-color="#FCF3C3"/>
</linearGradient>
<linearGradient id="paint1_linear_321_577" x1="20.1618" y1="48.207" x2="26.5639" y2="54.8118" gradientUnits="userSpaceOnUse">
<stop stop-color="#EE2D82"/>
<stop offset="1" stop-color="#FCF3C3"/>
</linearGradient>
<linearGradient id="paint2_linear_321_577" x1="23.2982" y1="51.4436" x2="26.3109" y2="54.5517" gradientUnits="userSpaceOnUse">
<stop stop-color="#EE2D82"/>
<stop offset="1" stop-color="#FCF3C3"/>
</linearGradient>
<linearGradient id="paint3_linear_321_577" x1="16.8121" y1="29.2032" x2="73.3443" y2="29.2032" gradientUnits="userSpaceOnUse">
<stop stop-color="#EE2D82"/>
<stop offset="1" stop-color="#FCF3C3"/>
</linearGradient>
</defs>
</svg>
