<svg width="73" height="72" viewBox="0 0 73 72" fill="none" xmlns="http://www.w3.org/2000/svg">
<g id="img_feature2">
<g id="Group 119">
<g id="Group 62">
<g id="Ellipse 27">
<circle cx="27.8362" cy="28.1396" r="14.6027" transform="rotate(-15 27.8362 28.1396)" fill="#FFBEBE" fill-opacity="0.9"/>
<circle cx="27.8362" cy="28.1396" r="14.6027" transform="rotate(-15 27.8362 28.1396)" fill="url(#paint0_linear_321_557)" fill-opacity="0.3"/>
</g>
<circle id="Ellipse 28" cx="27.8362" cy="28.1395" r="12.2663" transform="rotate(-15 27.8362 28.1395)" fill="url(#paint1_linear_321_557)" fill-opacity="0.5"/>
<path id="$" d="M33.1448 30.0668C33.3705 30.9094 33.2987 31.6736 32.9294 32.3595C32.5601 33.0455 31.9476 33.5821 31.0919 33.9694C31.0449 34.0046 31.027 34.0432 31.0383 34.0854L31.3292 35.108C31.3434 35.1607 31.3336 35.2084 31.2999 35.2513C31.2796 35.3019 31.2431 35.3343 31.1905 35.3484L29.6107 35.7717C29.558 35.7858 29.505 35.7774 29.4516 35.7466C29.4115 35.7234 29.3844 35.6855 29.3703 35.6329L29.1067 34.586C29.0955 34.5439 29.0607 34.5193 29.0024 34.5124C28.0592 34.5732 27.2548 34.3937 26.5891 33.9738C25.9341 33.551 25.4936 32.9184 25.2679 32.0758L25.1747 31.7283C25.1606 31.6756 25.1651 31.6293 25.1883 31.5892C25.2191 31.5358 25.2609 31.502 25.3135 31.4879L27.0197 31.0308C27.0723 31.0166 27.1201 31.0264 27.163 31.0601C27.2136 31.0804 27.2459 31.1169 27.26 31.1695L27.3235 31.4065C27.4364 31.8278 27.7167 32.1365 28.1643 32.3326C28.6091 32.5182 29.1527 32.5249 29.7952 32.3528C30.3323 32.2088 30.6962 31.9872 30.8869 31.6877C31.0853 31.375 31.1379 31.0448 31.0448 30.6972C30.9771 30.4445 30.8416 30.255 30.6385 30.1288C30.4325 29.9921 30.1705 29.8987 29.8522 29.8485C29.5417 29.7849 29.0553 29.7177 28.3929 29.6469C27.6434 29.5881 27.0031 29.4944 26.472 29.3658C25.9408 29.2372 25.4542 29.0007 25.012 28.6564C24.5775 28.2987 24.2742 27.7987 24.1021 27.1562C23.8848 26.3453 23.9478 25.6116 24.2912 24.9552C24.6422 24.2854 25.2126 23.7601 26.0023 23.3792C26.0493 23.344 26.0672 23.3054 26.0559 23.2632L25.7153 22.1185C25.7012 22.0658 25.7057 22.0194 25.7288 21.9794C25.7597 21.926 25.8014 21.8922 25.8541 21.8781L27.4338 21.4548C27.4865 21.4407 27.5343 21.4505 27.5772 21.4841C27.6277 21.5044 27.6601 21.5409 27.6742 21.5936L27.9759 22.7826C27.9872 22.8248 28.022 22.8493 28.0803 22.8563C29.0024 22.8011 29.8005 22.9992 30.4746 23.4507C31.1459 23.8917 31.5944 24.5335 31.8201 25.376L31.8836 25.613C31.8977 25.6656 31.8894 25.7187 31.8585 25.7721C31.8354 25.8122 31.7975 25.8392 31.7448 25.8534L30.0229 26.3148C29.9702 26.3289 29.9186 26.3258 29.868 26.3055C29.8251 26.2718 29.7966 26.2286 29.7825 26.176L29.7487 26.0496C29.6301 25.6073 29.3562 25.2799 28.9268 25.0676C28.4946 24.8448 27.9783 24.8138 27.378 24.9747C26.9041 25.1017 26.5637 25.3058 26.3568 25.5869C26.15 25.8681 26.0959 26.193 26.1947 26.5616C26.2652 26.8249 26.3982 27.0264 26.5936 27.1659C26.7996 27.3026 27.075 27.4038 27.42 27.4694C27.7649 27.535 28.2896 27.5976 28.9942 27.6571C29.7703 27.7313 30.392 27.8187 30.8592 27.9193C31.3264 28.0199 31.7797 28.2371 32.219 28.5709C32.6584 28.9047 32.967 29.4033 33.1448 30.0668Z" fill="white"/>
</g>
<g id="Group 63" opacity="0.9">
<g id="Ellipse 27_2">
<circle cx="50.9911" cy="19.7523" r="10.6163" transform="rotate(15 50.9911 19.7523)" fill="#FFBEBE"/>
<circle cx="50.9911" cy="19.7523" r="10.6163" transform="rotate(15 50.9911 19.7523)" fill="url(#paint2_linear_321_557)" fill-opacity="0.3"/>
</g>
<circle id="Ellipse 28_2" cx="50.9914" cy="19.7514" r="8.91769" transform="rotate(15 50.9914 19.7514)" fill="url(#paint3_linear_321_557)" fill-opacity="0.5"/>
<path id="$_2" d="M53.6312 22.895C53.4671 23.5075 53.1441 23.9626 52.6622 24.2602C52.1804 24.5578 51.5997 24.673 50.9201 24.6059C50.8777 24.6109 50.8524 24.6288 50.8442 24.6594L50.6557 25.409C50.6454 25.4473 50.6219 25.4738 50.5851 25.4886C50.5539 25.513 50.5192 25.5201 50.4809 25.5099L49.3324 25.2021C49.2941 25.1919 49.2638 25.1673 49.2414 25.1285C49.2245 25.0994 49.2213 25.0657 49.2315 25.0274L49.4461 24.2724C49.4543 24.2418 49.4413 24.2137 49.4072 24.1882C48.7912 23.8836 48.35 23.4782 48.0836 22.9718C47.8248 22.4675 47.7775 21.9091 47.9416 21.2966L48.0093 21.0439C48.0195 21.0056 48.0392 20.9781 48.0684 20.9613C48.1072 20.9388 48.1457 20.9328 48.184 20.943L49.4244 21.2754C49.4627 21.2856 49.4892 21.3092 49.504 21.3459C49.5285 21.3771 49.5356 21.4118 49.5253 21.4501L49.4792 21.6224C49.3971 21.9287 49.4613 22.2249 49.6719 22.5111C49.8845 22.7896 50.2243 22.9915 50.6914 23.1166C51.0818 23.2213 51.3915 23.214 51.6204 23.0948C51.859 22.97 52.0122 22.7812 52.0799 22.5285C52.1291 22.3448 52.1127 22.1763 52.0307 22.023C51.9507 21.862 51.8197 21.7079 51.6376 21.5607C51.4652 21.4078 51.1833 21.1886 50.792 20.9032C50.3415 20.5938 49.9725 20.302 49.6848 20.028C49.3971 19.754 49.1767 19.4282 49.0234 19.0507C48.8799 18.6675 48.8707 18.2424 48.9959 17.7754C49.1538 17.1858 49.4602 16.7468 49.915 16.4583C50.3795 16.1643 50.9296 16.0408 51.5653 16.0881C51.6076 16.083 51.6329 16.0652 51.6411 16.0345L51.8428 15.19C51.8531 15.1517 51.8728 15.1241 51.9019 15.1073C51.9407 15.0849 51.9793 15.0788 52.0176 15.0891L53.1661 15.3968C53.2044 15.4071 53.2309 15.4306 53.2457 15.4674C53.2701 15.4986 53.2772 15.5333 53.267 15.5716L53.0247 16.4299C53.0165 16.4605 53.0295 16.4886 53.0636 16.5142C53.6643 16.8146 54.0947 17.2295 54.355 17.7588C54.6174 18.2805 54.6665 18.8476 54.5023 19.4601L54.4562 19.6324C54.4459 19.6707 54.4214 19.701 54.3825 19.7234C54.3534 19.7402 54.3197 19.7435 54.2814 19.7333L53.0296 19.3978C52.9913 19.3876 52.9599 19.3669 52.9354 19.3357C52.9207 19.2989 52.9184 19.2614 52.9287 19.2231L52.9533 19.1312C53.0395 18.8096 52.9859 18.504 52.7928 18.2142C52.6017 17.9168 52.2879 17.7096 51.8514 17.5927C51.5069 17.5004 51.2184 17.5051 50.9859 17.607C50.7535 17.7088 50.6014 17.8937 50.5295 18.1617C50.4783 18.3531 50.4888 18.5283 50.5611 18.6872C50.6411 18.8481 50.7777 19.0119 50.971 19.1786C51.1644 19.3453 51.472 19.5754 51.8939 19.869C52.3556 20.1979 52.7153 20.4789 52.9728 20.7121C53.2304 20.9452 53.4369 21.2467 53.5922 21.6166C53.7474 21.9865 53.7605 22.4126 53.6312 22.895Z" fill="white"/>
</g>
<g id="Group 38">
<mask id="mask0_321_557" style="mask-type:alpha" maskUnits="userSpaceOnUse" x="10" y="37" width="50" height="29">
<path id="Rectangle 28" d="M59.996 37.4508L10.4097 37.1239L10.0663 58.0862C10.003 61.9516 13.0856 65.1059 16.9515 65.1314L52.5381 65.366C56.404 65.3915 59.5893 62.2786 59.6526 58.4131L59.996 37.4508Z" fill="url(#paint4_linear_321_557)"/>
</mask>
<g mask="url(#mask0_321_557)">
<rect id="Rectangle 30" width="49.5874" height="27.9651" transform="matrix(-0.999978 -0.00659332 -0.0163815 0.999866 59.996 37.4508)" fill="#D1B5CC" fill-opacity="0.6"/>
<rect id="Rectangle 25" width="49.5874" height="27.9651" transform="matrix(-0.999978 -0.00659332 -0.0163815 0.999866 59.996 37.4508)" fill="url(#paint5_linear_321_557)" fill-opacity="0.3"/>
<rect id="Rectangle 27" width="36.6956" height="27.9442" transform="matrix(-0.999974 -0.0072597 -0.0148781 0.999889 47.0635 37.41)" fill="url(#paint6_linear_321_557)" fill-opacity="0.3"/>
<rect id="Rectangle 29" width="36.6956" height="27.9442" transform="matrix(-0.999974 -0.0072597 -0.0148781 0.999889 47.0635 37.41)" fill="url(#paint7_linear_321_557)" fill-opacity="0.3"/>
</g>
</g>
</g>
</g>
<defs>
<linearGradient id="paint0_linear_321_557" x1="13.2335" y1="28.1396" x2="42.4389" y2="28.1396" gradientUnits="userSpaceOnUse">
<stop stop-color="#EE2D82"/>
<stop offset="1" stop-color="#FCF3C3"/>
</linearGradient>
<linearGradient id="paint1_linear_321_557" x1="15.57" y1="28.1395" x2="40.1025" y2="28.1395" gradientUnits="userSpaceOnUse">
<stop stop-color="#EE2D82"/>
<stop offset="1" stop-color="#FCF3C3"/>
</linearGradient>
<linearGradient id="paint2_linear_321_557" x1="40.3748" y1="19.7523" x2="61.6074" y2="19.7523" gradientUnits="userSpaceOnUse">
<stop stop-color="#EE2D82"/>
<stop offset="1" stop-color="#FCF3C3"/>
</linearGradient>
<linearGradient id="paint3_linear_321_557" x1="42.0737" y1="19.7514" x2="59.9091" y2="19.7514" gradientUnits="userSpaceOnUse">
<stop stop-color="#EE2D82"/>
<stop offset="1" stop-color="#FCF3C3"/>
</linearGradient>
<linearGradient id="paint4_linear_321_557" x1="59.767" y1="51.4315" x2="10.1886" y2="50.6192" gradientUnits="userSpaceOnUse">
<stop stop-color="#EE2D82"/>
<stop offset="1" stop-color="#FCF3C3"/>
</linearGradient>
<linearGradient id="paint5_linear_321_557" x1="0" y1="13.9825" x2="49.5874" y2="13.9825" gradientUnits="userSpaceOnUse">
<stop stop-color="#EE2D82"/>
<stop offset="1" stop-color="#FCF3C3"/>
</linearGradient>
<linearGradient id="paint6_linear_321_557" x1="0" y1="13.9721" x2="36.6956" y2="13.9721" gradientUnits="userSpaceOnUse">
<stop stop-color="#EE2D82"/>
<stop offset="1" stop-color="#FCF3C3"/>
</linearGradient>
<linearGradient id="paint7_linear_321_557" x1="0" y1="13.9721" x2="36.6956" y2="13.9721" gradientUnits="userSpaceOnUse">
<stop stop-color="#EE2D82"/>
<stop offset="1" stop-color="#FCF3C3"/>
</linearGradient>
</defs>
</svg>
