<svg width="72" height="72" viewBox="0 0 72 72" fill="none" xmlns="http://www.w3.org/2000/svg">
<g id="img_feature2">
<g id="Group 117">
<rect id="Rectangle 79" x="69" y="46.5" width="18.75" height="65.25" rx="4" transform="rotate(90 69 46.5)" fill="url(#paint0_linear_321_544)" fill-opacity="0.1"/>
<rect id="Rectangle 78" x="69" y="25.5" width="39.75" height="65.25" rx="4" transform="rotate(90 69 25.5)" fill="url(#paint1_linear_321_544)" fill-opacity="0.1"/>
<path id="Rectangle 73" d="M10.5652 47.0215C10.5652 44.9504 12.2441 43.2715 14.3152 43.2715C16.3863 43.2715 18.0652 44.9504 18.0652 47.0215V63.6519H10.5652V47.0215Z" fill="url(#paint2_linear_321_544)" fill-opacity="0.4"/>
<path id="Rectangle 74" d="M24.0652 38.8696C24.0652 36.7986 25.7441 35.1196 27.8152 35.1196C29.8863 35.1196 31.5652 36.7986 31.5652 38.8696V63.6522H24.0652V38.8696Z" fill="url(#paint3_linear_321_544)" fill-opacity="0.6"/>
<path id="Rectangle 75" d="M37.5652 32.3481C37.5652 30.2771 39.2441 28.5981 41.3152 28.5981C43.3863 28.5981 45.0652 30.2771 45.0652 32.3481V63.6525H37.5652V32.3481Z" fill="url(#paint4_linear_321_544)" fill-opacity="0.7"/>
<path id="Rectangle 76" d="M51.0652 21.75C51.0652 19.6789 52.7441 18 54.8152 18C56.8863 18 58.5652 19.6789 58.5652 21.75V63.6522H51.0652V21.75Z" fill="url(#paint5_linear_321_544)" fill-opacity="0.9"/>
<path id="Line 59" d="M6.75 64.875H64.6304" stroke="#C5477D" stroke-width="3" stroke-linecap="round"/>
</g>
</g>
<defs>
<linearGradient id="paint0_linear_321_544" x1="67.9345" y1="80.052" x2="89.3482" y2="80.052" gradientUnits="userSpaceOnUse">
<stop stop-color="#EE2D82"/>
<stop offset="1" stop-color="#FCF3C3"/>
</linearGradient>
<linearGradient id="paint1_linear_321_544" x1="66.7412" y1="59.052" x2="112.138" y2="59.052" gradientUnits="userSpaceOnUse">
<stop stop-color="#EE2D82"/>
<stop offset="1" stop-color="#FCF3C3"/>
</linearGradient>
<linearGradient id="paint2_linear_321_544" x1="10.139" y1="53.7512" x2="18.7045" y2="53.7512" gradientUnits="userSpaceOnUse">
<stop stop-color="#EE2D82"/>
<stop offset="1" stop-color="#FCF3C3"/>
</linearGradient>
<linearGradient id="paint3_linear_321_544" x1="23.639" y1="49.7913" x2="32.2045" y2="49.7913" gradientUnits="userSpaceOnUse">
<stop stop-color="#EE2D82"/>
<stop offset="1" stop-color="#FCF3C3"/>
</linearGradient>
<linearGradient id="paint4_linear_321_544" x1="37.139" y1="46.6233" x2="45.7045" y2="46.6233" gradientUnits="userSpaceOnUse">
<stop stop-color="#EE2D82"/>
<stop offset="1" stop-color="#FCF3C3"/>
</linearGradient>
<linearGradient id="paint5_linear_321_544" x1="50.639" y1="41.4746" x2="59.2045" y2="41.4746" gradientUnits="userSpaceOnUse">
<stop stop-color="#EE2D82"/>
<stop offset="1" stop-color="#FCF3C3"/>
</linearGradient>
</defs>
</svg>
