<svg width="72" height="72" viewBox="0 0 72 72" fill="none" xmlns="http://www.w3.org/2000/svg">
<g id="img_feature2">
<g id="Group 90">
<path id="Vector 124" d="M15.1344 12.9344C30.3286 -2.64909 45.8256 5.33608 51.6748 11.2766C78.306 33.0355 72.3191 47.127 56.4229 57.6956C40.5268 68.2642 19.2632 70.751 8.94106 59.5607C-1.3811 48.3704 -3.85842 32.4138 15.1344 12.9344Z" fill="url(#paint0_linear_321_510)" fill-opacity="0.2"/>
<path id="Vector 126" d="M21.4471 18.632C32.6776 7.00621 44.1319 12.9634 48.4553 17.3952C68.1392 33.6281 63.7141 44.1408 51.9648 52.0253C40.2155 59.9098 24.4989 61.765 16.8695 53.4167C9.24005 45.0684 7.40899 33.1643 21.4471 18.632Z" fill="url(#paint1_linear_321_510)" fill-opacity="0.4"/>
<g id="Group 88">
<path id="Union" fill-rule="evenodd" clip-rule="evenodd" d="M43.3428 51.4178C43.7711 51.7665 44.4009 51.702 44.7497 51.2738C45.0984 50.8455 45.0339 50.2157 44.6057 49.8669L44.1325 49.4816C45.3981 49.3376 46.4399 48.9542 47.2396 48.2102C48.4977 47.04 48.8958 45.2126 49.0348 43.0155C49.0696 42.4643 48.6511 41.9893 48.0999 41.9544C47.5487 41.9195 47.0736 42.3381 47.0388 42.8893C46.9024 45.0456 46.5192 46.1489 45.8774 46.7458C45.4905 47.1058 44.9114 47.3701 43.9799 47.4856L44.5149 47.0143C44.9293 46.6492 44.9692 46.0173 44.6041 45.6029C44.2391 45.1885 43.6071 45.1485 43.1928 45.5136L40.668 47.738L39.7823 48.5184L40.6976 49.2638L43.3428 51.4178Z" fill="#F03A87"/>
</g>
<g id="Group 89">
<path id="Union_2" fill-rule="evenodd" clip-rule="evenodd" d="M25.5701 20.8153C25.1418 20.4666 24.5119 20.531 24.1632 20.9593C23.8145 21.3876 23.8789 22.0174 24.3072 22.3662L24.7803 22.7515C23.5147 22.8955 22.473 23.2789 21.6732 24.0229C20.4152 25.1931 20.017 27.0205 19.8781 29.2176C19.8432 29.7687 20.2618 30.2438 20.813 30.2787C21.3641 30.3135 21.8392 29.895 21.8741 29.3438C22.0105 27.1875 22.3937 26.0842 23.0354 25.4872C23.4223 25.1273 24.0015 24.863 24.933 24.7475L24.398 25.2188C23.9836 25.5839 23.9436 26.2158 24.3087 26.6302C24.6738 27.0446 25.3057 27.0846 25.7201 26.7195L28.2449 24.4951L29.1306 23.7147L28.2152 22.9693L25.5701 20.8153Z" fill="#91CEFF"/>
</g>
<g id="Group 85">
<circle id="Ellipse 30" cx="42.6236" cy="29.6302" r="11.4857" fill="url(#paint2_linear_321_510)"/>
<path id="Polygon 1" d="M41.6056 24.705C42.2244 24.3478 42.9868 24.3478 43.6056 24.705L46.3553 26.2926C46.9741 26.6499 47.3553 27.3101 47.3553 28.0246V31.1998C47.3553 31.9143 46.9741 32.5746 46.3553 32.9318L43.6056 34.5194C42.9868 34.8767 42.2244 34.8767 41.6056 34.5194L38.8559 32.9318C38.237 32.5746 37.8559 31.9143 37.8559 31.1998V28.0246C37.8559 27.3101 38.237 26.6499 38.8559 26.2926L41.6056 24.705Z" stroke="white" stroke-width="1.5"/>
</g>
<g id="Group 86">
<circle id="Ellipse 30_2" cx="27.5545" cy="43.9061" r="11.4857" fill="url(#paint3_linear_321_510)"/>
<path id="$" d="M30.9452 45.8166C30.9452 46.5857 30.7096 47.2202 30.2386 47.7201C29.7675 48.22 29.1234 48.5372 28.3063 48.6718C28.2582 48.691 28.2342 48.7199 28.2342 48.7583L28.2486 49.6956C28.2486 49.7437 28.2294 49.7821 28.1909 49.811C28.1621 49.8494 28.1236 49.8687 28.0756 49.8687H26.6336C26.5855 49.8687 26.5422 49.8494 26.5038 49.811C26.4749 49.7821 26.4605 49.7437 26.4605 49.6956L26.4749 48.7439C26.4749 48.7055 26.4509 48.6766 26.4028 48.6574C25.5857 48.494 24.9416 48.1575 24.4705 47.648C24.0091 47.1385 23.7784 46.4992 23.7784 45.7301V45.4129C23.7784 45.3648 23.7928 45.3264 23.8216 45.2975C23.8601 45.2591 23.9034 45.2398 23.9514 45.2398H25.5088C25.5569 45.2398 25.5953 45.2591 25.6241 45.2975C25.6626 45.3264 25.6818 45.3648 25.6818 45.4129V45.6292C25.6818 46.0137 25.8501 46.3406 26.1865 46.6097C26.523 46.8693 26.9844 46.9991 27.5709 46.9991C28.0611 46.9991 28.4216 46.8933 28.6524 46.6818C28.8927 46.4607 29.0129 46.1916 29.0129 45.8743C29.0129 45.6436 28.9408 45.4513 28.7966 45.2975C28.6524 45.1341 28.4505 44.9947 28.1909 44.8793C27.941 44.7544 27.542 44.5861 26.9941 44.3746C26.3692 44.1535 25.8453 43.9276 25.4223 43.6969C24.9993 43.4662 24.6388 43.1537 24.3408 42.7596C24.0524 42.3558 23.9082 41.8607 23.9082 41.2743C23.9082 40.5341 24.1293 39.9236 24.5715 39.443C25.0233 38.9527 25.629 38.6354 26.3884 38.4912C26.4365 38.472 26.4605 38.4432 26.4605 38.4047L26.4317 37.3521C26.4317 37.304 26.4461 37.2655 26.4749 37.2367C26.5134 37.1982 26.5566 37.179 26.6047 37.179H28.0467C28.0948 37.179 28.1332 37.1982 28.1621 37.2367C28.2005 37.2655 28.2198 37.304 28.2198 37.3521L28.2053 38.4336C28.2053 38.472 28.2294 38.5009 28.2774 38.5201C29.0754 38.6835 29.7098 39.0344 30.1809 39.5727C30.6519 40.1015 30.8875 40.7504 30.8875 41.5195V41.7358C30.8875 41.7838 30.8682 41.8271 30.8298 41.8655C30.801 41.8944 30.7625 41.9088 30.7144 41.9088H29.1426C29.0946 41.9088 29.0513 41.8944 29.0129 41.8655C28.984 41.8271 28.9696 41.7838 28.9696 41.7358V41.6204C28.9696 41.2166 28.811 40.8754 28.4937 40.5966C28.1765 40.3082 27.7439 40.164 27.1959 40.164C26.7633 40.164 26.4269 40.2601 26.1865 40.4524C25.9462 40.6446 25.826 40.909 25.826 41.2455C25.826 41.4858 25.8933 41.6877 26.0279 41.8511C26.1721 42.0145 26.3836 42.1636 26.6624 42.2981C26.9412 42.4327 27.3738 42.6058 27.9602 42.8173C28.6043 43.0576 29.1138 43.2739 29.4887 43.4662C29.8636 43.6584 30.2001 43.9468 30.4981 44.3314C30.7961 44.7159 30.9452 45.211 30.9452 45.8166Z" fill="white"/>
</g>
</g>
</g>
<defs>
<linearGradient id="paint0_linear_321_510" x1="-2.92098" y1="36.2637" x2="75.8815" y2="36.2637" gradientUnits="userSpaceOnUse">
<stop stop-color="#EE2D82"/>
<stop offset="1" stop-color="#FCF3C3"/>
</linearGradient>
<linearGradient id="paint1_linear_321_510" x1="8.10189" y1="36.0364" x2="66.3472" y2="36.0364" gradientUnits="userSpaceOnUse">
<stop stop-color="#EE2D82"/>
<stop offset="1" stop-color="#FCF3C3"/>
</linearGradient>
<linearGradient id="paint2_linear_321_510" x1="29.8326" y1="29.9565" x2="56.0673" y2="29.9565" gradientUnits="userSpaceOnUse">
<stop stop-color="#EE2D82"/>
<stop offset="1" stop-color="#FCF3C3"/>
</linearGradient>
<linearGradient id="paint3_linear_321_510" x1="14.7635" y1="44.2324" x2="40.9982" y2="44.2324" gradientUnits="userSpaceOnUse">
<stop stop-color="#EE2D82"/>
<stop offset="1" stop-color="#FCF3C3"/>
</linearGradient>
</defs>
</svg>
