<svg xmlns="http://www.w3.org/2000/svg" width="65" height="64" viewBox="0 0 65 64" fill="none">
  <path d="M32.2449 3.97852V13.7034C32.2449 15.3733 32.8427 16.7731 34.0384 17.9027C35.234 19.0324 36.6968 19.5972 38.4267 19.5972C39.3425 19.5972 40.1947 19.413 40.9833 19.0447C41.7719 18.6763 42.4715 18.1238 43.0821 17.387L44.4558 15.7662C48.2209 17.8291 51.1973 20.7023 53.3851 24.386C55.5729 28.0696 56.6667 32.0726 56.6667 36.3947C56.6667 42.9762 54.3009 48.5508 49.5691 53.1185C44.8374 57.6863 39.0626 59.9701 32.2449 59.9701C25.4271 59.9701 19.6523 57.6863 14.9206 53.1185C10.1889 48.5508 7.823 42.9762 7.823 36.3947C7.823 30.0588 10.0235 24.0422 14.4245 18.3448C18.8256 12.6474 24.7657 7.85864 32.2449 3.97852Z" fill="url(#paint0_linear_1_553)" fill-opacity="0.4"/>
  <path d="M32.2698 3.88281V13.5231C32.2698 15.1785 32.8419 16.5661 33.9861 17.686C35.1303 18.8058 36.5301 19.3657 38.1855 19.3657C39.0619 19.3657 39.8774 19.1831 40.6321 18.818C41.3867 18.4528 42.0562 17.9051 42.6405 17.1747L43.955 15.568C47.558 17.6129 50.4062 20.4612 52.4998 24.1128C54.5934 27.7645 55.6402 31.7326 55.6402 36.0171C55.6402 42.5414 53.3762 48.0675 48.8482 52.5955C44.3202 57.1235 38.7941 59.3875 32.2698 59.3875C25.7456 59.3875 20.2195 57.1235 15.6914 52.5955C11.1634 48.0675 8.89941 42.5414 8.89941 36.0171C8.89941 29.7363 11.0052 23.772 15.2167 18.1242C19.4283 12.4763 25.1126 7.72919 32.2698 3.88281Z" fill="url(#paint1_linear_1_553)" fill-opacity="0.3"/>
  <path d="M32.2701 19.5483V25.6369C32.2701 26.6825 32.6276 27.5589 33.3427 28.2661C34.0579 28.9734 34.9327 29.327 35.9674 29.327C36.5151 29.327 37.0248 29.2117 37.4965 28.9811C37.9681 28.7504 38.3866 28.4045 38.7517 27.9432L39.5733 26.9285C41.8252 28.22 43.6053 30.0189 44.9138 32.3252C46.2223 34.6315 46.8766 37.1377 46.8766 39.8437C46.8766 43.9643 45.4616 47.4545 42.6316 50.3143C39.8016 53.1741 36.3477 54.604 32.2701 54.604C28.1924 54.604 24.7386 53.1741 21.9086 50.3143C19.0786 47.4545 17.6636 43.9643 17.6636 39.8437C17.6636 35.8769 18.9797 32.1099 21.6119 28.5429C24.2441 24.9758 27.7968 21.9776 32.2701 19.5483Z" fill="#DBB7B7" fill-opacity="0.02"/>
  <path d="M32.2701 19.5483V25.6369C32.2701 26.6825 32.6276 27.5589 33.3427 28.2661C34.0579 28.9734 34.9327 29.327 35.9674 29.327C36.5151 29.327 37.0248 29.2117 37.4965 28.9811C37.9681 28.7504 38.3866 28.4045 38.7517 27.9432L39.5733 26.9285C41.8252 28.22 43.6053 30.0189 44.9138 32.3252C46.2223 34.6315 46.8766 37.1377 46.8766 39.8437C46.8766 43.9643 45.4616 47.4545 42.6316 50.3143C39.8016 53.1741 36.3477 54.604 32.2701 54.604C28.1924 54.604 24.7386 53.1741 21.9086 50.3143C19.0786 47.4545 17.6636 43.9643 17.6636 39.8437C17.6636 35.8769 18.9797 32.1099 21.6119 28.5429C24.2441 24.9758 27.7968 21.9776 32.2701 19.5483Z" fill="url(#paint2_linear_1_553)" fill-opacity="0.3"/>
  <path d="M27.3356 50.0234C24.4143 47.1021 24.4143 42.3657 27.3356 39.4444L32.6251 34.155L37.9145 39.4444C40.8358 42.3657 40.8358 47.1021 37.9145 50.0234C34.9932 52.9446 30.2569 52.9446 27.3356 50.0234Z" fill="#DBB7B7" fill-opacity="0.6"/>
  <path d="M27.3356 50.0234C24.4143 47.1021 24.4143 42.3657 27.3356 39.4444L32.6251 34.155L37.9145 39.4444C40.8358 42.3657 40.8358 47.1021 37.9145 50.0234C34.9932 52.9446 30.2569 52.9446 27.3356 50.0234Z" fill="url(#paint3_linear_1_553)" fill-opacity="0.3"/>
  <defs>
    <linearGradient id="paint0_linear_1_553" x1="5.04741" y1="32.7698" x2="60.8301" y2="32.7698" gradientUnits="userSpaceOnUse">
      <stop stop-color="#EE2D82"/>
      <stop offset="1" stop-color="#FCF3C3"/>
    </linearGradient>
    <linearGradient id="paint1_linear_1_553" x1="6.24333" y1="32.4237" x2="59.6244" y2="32.4237" gradientUnits="userSpaceOnUse">
      <stop stop-color="#EE2D82"/>
      <stop offset="1" stop-color="#FCF3C3"/>
    </linearGradient>
    <linearGradient id="paint2_linear_1_553" x1="16.0035" y1="37.5742" x2="49.3667" y2="37.5742" gradientUnits="userSpaceOnUse">
      <stop stop-color="#EE2D82"/>
      <stop offset="1" stop-color="#FCF3C3"/>
    </linearGradient>
    <linearGradient id="paint3_linear_1_553" x1="26.8847" y1="50.7748" x2="38.9666" y2="38.693" gradientUnits="userSpaceOnUse">
      <stop stop-color="#EE2D82"/>
      <stop offset="1" stop-color="#FCF3C3"/>
    </linearGradient>
  </defs>
</svg>