<svg xmlns="http://www.w3.org/2000/svg" width="24" height="24" viewBox="0 0 24 24" fill="none">
  <path d="M23.641 14.9029C22.0381 21.3315 15.5262 25.2438 9.09606 23.6407C2.66863 22.0381 -1.24415 15.5265 0.359423 9.09837C1.96159 2.66903 8.47349 -1.24361 14.9016 0.359081C21.3313 1.96177 25.2438 8.47405 23.6408 14.903L23.6409 14.9029H23.641Z" fill="#5A7FF2"/>
  <path d="M11.597 3.77783L11.488 4.1594V15.2307L11.597 15.3428L16.581 12.3051L11.597 3.77783Z" fill="#BECCFB"/>
  <path d="M11.596 3.77783L6.61182 12.3051L11.596 15.3428V9.96909V3.77783Z" fill="white"/>
  <path d="M11.597 16.3165L11.5356 16.3937V20.3374L11.597 20.5223L16.5841 13.2803L11.597 16.3165Z" fill="#BECCFB"/>
  <path d="M11.596 20.5223V16.3165L6.61182 13.2803L11.596 20.5223Z" fill="white"/>
  <path d="M11.5989 15.3425L16.5829 12.3047L11.5989 9.96875V15.3425Z" fill="#7B99F5"/>
  <path d="M6.61182 12.3047L11.596 15.3425V9.96875L6.61182 12.3047Z" fill="#BECCFB"/>
</svg>