<svg xmlns="http://www.w3.org/2000/svg" width="96" height="96" viewBox="0 0 96 96" fill="none">
  <path d="M5.42807 53.5604C3.81419 52.3708 3.81419 49.9915 5.42807 48.8019L43.6945 20.596C45.8267 19.0243 48.7541 19.0088 50.9035 20.5576L90.0716 48.7827C91.7206 49.971 91.7206 52.3913 90.0716 53.5796L50.9035 81.8047C48.7541 83.3535 45.8267 83.338 43.6945 81.7663L5.42807 53.5604Z" fill="url(#paint0_linear_0_206)" fill-opacity="0.2"/>
  <path d="M13.9211 44.3468C12.2809 43.1581 12.2809 40.7481 13.9211 39.5595L43.7435 17.9469C45.8552 16.4165 48.7296 16.3979 50.8617 17.9008L81.5554 39.5364C83.2386 40.7229 83.2386 43.1834 81.5554 44.3698L50.8617 66.0055C48.7296 67.5083 45.8552 67.4897 43.7435 65.9594L13.9211 44.3468Z" fill="url(#paint1_linear_0_206)" fill-opacity="0.3"/>
  <path d="M22.1679 36.2028C20.4784 35.0167 20.4784 32.5487 22.1679 31.3627L44.5601 15.6428C46.7271 14.1215 49.6512 14.1713 51.7633 15.7655L72.5081 31.424C74.0852 32.6145 74.0852 34.951 72.5081 36.1414L51.7633 51.7999C49.6513 53.3941 46.7271 53.4439 44.5601 51.9226L22.1679 36.2028Z" fill="url(#paint2_linear_0_206)" fill-opacity="0.6"/>
  <path d="M32.9708 25.0504C31.2892 23.8639 31.2892 21.4052 32.9708 20.2186L44.5762 12.03C46.7346 10.5071 49.6512 10.546 51.7667 12.126L62.6665 20.2666C64.26 21.4567 64.26 23.8123 62.6665 25.0024L51.7667 33.1431C49.6512 34.723 46.7346 34.762 44.5762 33.2391L32.9708 25.0504Z" fill="url(#paint3_linear_0_206)"/>
  <defs>
    <linearGradient id="paint0_linear_0_206" x1="21.1335" y1="76.8843" x2="72.532" y2="24.59" gradientUnits="userSpaceOnUse">
      <stop stop-color="#EE2D82"/>
      <stop offset="1" stop-color="#FCF3C3"/>
    </linearGradient>
    <linearGradient id="paint1_linear_0_206" x1="26.3741" y1="62.5064" x2="67.4744" y2="20.6897" gradientUnits="userSpaceOnUse">
      <stop stop-color="#EE2D82"/>
      <stop offset="1" stop-color="#FCF3C3"/>
    </linearGradient>
    <linearGradient id="paint2_linear_0_206" x1="31.9177" y1="49.794" x2="63.9354" y2="17.2183" gradientUnits="userSpaceOnUse">
      <stop stop-color="#EE2D82"/>
      <stop offset="1" stop-color="#FCF3C3"/>
    </linearGradient>
    <linearGradient id="paint3_linear_0_206" x1="37.8461" y1="32.8185" x2="58.2109" y2="12.0987" gradientUnits="userSpaceOnUse">
      <stop stop-color="#EE2D82"/>
      <stop offset="1" stop-color="#FCF3C3"/>
    </linearGradient>
  </defs>
</svg>