<svg xmlns="http://www.w3.org/2000/svg" width="96" height="96" viewBox="0 0 96 96" fill="none">
  <path d="M20.1788 17.2459C40.4378 -3.53212 61.1004 7.11478 68.8994 15.0355C104.408 44.0474 96.4251 62.836 75.2303 76.9275C54.0354 91.019 25.684 94.3346 11.9211 79.4142C-1.8418 64.4938 -5.14489 43.2185 20.1788 17.2459Z" fill="url(#paint0_linear_0_172)" fill-opacity="0.2"/>
  <path d="M28.5955 24.8428C43.5695 9.34169 58.8419 17.2846 64.6064 23.1937C90.8517 44.8375 84.9515 58.8544 69.2857 69.3671C53.62 79.8798 32.6645 82.3534 22.492 71.2223C12.3194 60.0912 9.87801 44.2191 28.5955 24.8428Z" fill="url(#paint1_linear_0_172)" fill-opacity="0.4"/>
  <path fill-rule="evenodd" clip-rule="evenodd" d="M57.9999 68.2986C58.4281 68.6474 59.058 68.5829 59.4067 68.1546C59.7555 67.7264 59.691 67.0965 59.2628 66.7478L57.9897 65.7111C60.0125 65.6047 61.5982 65.1153 62.7581 64.0363C64.3328 62.5715 64.8612 60.2557 65.046 57.3331C65.0809 56.7819 64.6623 56.3068 64.1111 56.2719C63.56 56.2371 63.0849 56.6556 63.05 57.2068C62.8678 60.0887 62.3543 61.6804 61.3959 62.5719C60.6747 63.2428 59.5497 63.6539 57.6705 63.7231L59.1318 62.4357C59.5462 62.0706 59.5862 61.4387 59.2211 61.0243C58.856 60.6099 58.2241 60.5699 57.8097 60.935L54.4433 63.9008L53.5576 64.6812L54.473 65.4266L57.9999 68.2986Z" fill="#F03A87"/>
  <path fill-rule="evenodd" clip-rule="evenodd" d="M33.8829 28.0122C33.4547 27.6634 32.8248 27.7279 32.4761 28.1562C32.1273 28.5844 32.1918 29.2143 32.6201 29.563L33.8931 30.5997C31.8704 30.7061 30.2847 31.1955 29.1247 32.2745C27.55 33.7393 27.0216 36.0551 26.8368 38.9777C26.8019 39.5289 27.2205 40.004 27.7717 40.0389C28.3229 40.0737 28.7979 39.6552 28.8328 39.104C29.0151 36.2221 29.5285 34.6304 30.4869 33.7389C31.2081 33.068 32.3331 32.6569 34.2123 32.5877L32.751 33.8751C32.3366 34.2402 32.2966 34.8721 32.6617 35.2865C33.0268 35.7009 33.6587 35.7409 34.0731 35.3758L37.4395 32.41L38.3252 31.6296L37.4098 30.8842L33.8829 28.0122Z" fill="#91CEFF"/>
  <circle cx="56.8308" cy="39.5069" r="15.3142" fill="url(#paint2_linear_0_172)"/>
  <path d="M55.8068 32.7475C56.4256 32.3903 57.188 32.3903 57.8068 32.7475L62.1398 35.2492C62.7586 35.6064 63.1398 36.2667 63.1398 36.9812V41.9845C63.1398 42.6991 62.7586 43.3593 62.1398 43.7166L57.8068 46.2182C57.188 46.5755 56.4256 46.5755 55.8068 46.2182L51.4739 43.7166C50.8551 43.3593 50.4739 42.6991 50.4739 41.9845V36.9812C50.4739 36.2667 50.8551 35.6064 51.4739 35.2492L55.8068 32.7475Z" stroke="white" stroke-width="1.5"/>
  <circle cx="36.739" cy="58.5415" r="15.3142" fill="url(#paint3_linear_0_172)"/>
  <path d="M41.2598 61.0888C41.2598 62.1143 40.9458 62.9602 40.3177 63.6268C39.6896 64.2933 38.8308 64.7163 37.7413 64.8957C37.6772 64.9214 37.6452 64.9598 37.6452 65.0111L37.6644 66.2608C37.6644 66.3249 37.6388 66.3762 37.5875 66.4147C37.549 66.4659 37.4978 66.4916 37.4337 66.4916H35.511C35.4469 66.4916 35.3892 66.4659 35.338 66.4147C35.2995 66.3762 35.2803 66.3249 35.2803 66.2608L35.2995 64.9919C35.2995 64.9406 35.2675 64.9022 35.2034 64.8765C34.1139 64.6586 33.2551 64.21 32.627 63.5306C32.0117 62.8513 31.7041 61.9989 31.7041 60.9735V60.5505C31.7041 60.4864 31.7233 60.4351 31.7618 60.3967C31.8131 60.3454 31.8707 60.3198 31.9348 60.3198H34.0113C34.0754 60.3198 34.1267 60.3454 34.1651 60.3967C34.2164 60.4351 34.242 60.4864 34.242 60.5505V60.8389C34.242 61.3516 34.4663 61.7874 34.915 62.1463C35.3636 62.4924 35.9788 62.6654 36.7607 62.6654C37.4144 62.6654 37.8951 62.5244 38.2027 62.2424C38.5232 61.9476 38.6834 61.5887 38.6834 61.1658C38.6834 60.8581 38.5873 60.6018 38.395 60.3967C38.2027 60.1788 37.9336 59.9929 37.5875 59.8391C37.2542 59.6725 36.7223 59.4482 35.9917 59.1662C35.1585 58.8714 34.4599 58.5701 33.896 58.2625C33.332 57.9549 32.8513 57.5383 32.4539 57.0128C32.0694 56.4744 31.8771 55.8143 31.8771 55.0324C31.8771 54.0454 32.172 53.2315 32.7616 52.5906C33.364 51.9369 34.1715 51.5139 35.1841 51.3217C35.2482 51.296 35.2803 51.2576 35.2803 51.2063L35.2418 49.8027C35.2418 49.7387 35.2611 49.6874 35.2995 49.6489C35.3508 49.5977 35.4085 49.572 35.4725 49.572H37.3952C37.4593 49.572 37.5106 49.5977 37.549 49.6489C37.6003 49.6874 37.6259 49.7387 37.6259 49.8027L37.6067 51.2447C37.6067 51.296 37.6388 51.3345 37.7028 51.3601C38.7667 51.578 39.6127 52.0459 40.2408 52.7637C40.8689 53.4686 41.1829 54.3338 41.1829 55.3593V55.6477C41.1829 55.7118 41.1573 55.7694 41.106 55.8207C41.0675 55.8592 41.0163 55.8784 40.9522 55.8784H38.8565C38.7924 55.8784 38.7347 55.8592 38.6834 55.8207C38.645 55.7694 38.6257 55.7118 38.6257 55.6477V55.4939C38.6257 54.9555 38.4142 54.5005 37.9912 54.1288C37.5683 53.7442 36.9915 53.552 36.2608 53.552C35.684 53.552 35.2354 53.6801 34.915 53.9365C34.5945 54.1928 34.4343 54.5453 34.4343 54.994C34.4343 55.3144 34.524 55.5836 34.7035 55.8015C34.8957 56.0194 35.1777 56.2181 35.5495 56.3975C35.9212 56.577 36.498 56.8077 37.2799 57.0897C38.1387 57.4101 38.818 57.6985 39.3179 57.9549C39.8178 58.2112 40.2664 58.5958 40.6638 59.1085C41.0611 59.6212 41.2598 60.2813 41.2598 61.0888Z" fill="white"/>
  <defs>
    <linearGradient id="paint0_linear_0_172" x1="-3.89496" y1="48.3516" x2="101.175" y2="48.3516" gradientUnits="userSpaceOnUse">
      <stop stop-color="#EE2D82"/>
      <stop offset="1" stop-color="#FCF3C3"/>
    </linearGradient>
    <linearGradient id="paint1_linear_0_172" x1="10.8019" y1="48.0486" x2="88.4623" y2="48.0486" gradientUnits="userSpaceOnUse">
      <stop stop-color="#EE2D82"/>
      <stop offset="1" stop-color="#FCF3C3"/>
    </linearGradient>
    <linearGradient id="paint2_linear_0_172" x1="39.7761" y1="39.942" x2="74.7558" y2="39.942" gradientUnits="userSpaceOnUse">
      <stop stop-color="#EE2D82"/>
      <stop offset="1" stop-color="#FCF3C3"/>
    </linearGradient>
    <linearGradient id="paint3_linear_0_172" x1="19.6843" y1="58.9766" x2="54.664" y2="58.9766" gradientUnits="userSpaceOnUse">
      <stop stop-color="#EE2D82"/>
      <stop offset="1" stop-color="#FCF3C3"/>
    </linearGradient>
  </defs>
</svg>