<svg xmlns="http://www.w3.org/2000/svg" width="96" height="96" viewBox="0 0 96 96" fill="none">
  <path d="M48.6673 10.3094C51.1425 8.88034 54.1921 8.88034 56.6673 10.3094L82.731 25.3573C85.2062 26.7863 86.731 29.4273 86.731 32.2855V62.3812C86.731 65.2393 85.2062 67.8803 82.731 69.3094L56.6673 84.3573C54.1921 85.7863 51.1425 85.7863 48.6673 84.3573L22.6036 69.3094C20.1284 67.8803 18.6037 65.2393 18.6037 62.3812V32.2855C18.6037 29.4273 20.1284 26.7863 22.6037 25.3573L48.6673 10.3094Z" fill="url(#paint0_linear_0_194)" fill-opacity="0.2"/>
  <path d="M50.6673 21.1547C51.9049 20.4402 53.4297 20.4402 54.6673 21.1547L74.3387 32.512C75.5763 33.2265 76.3387 34.547 76.3387 35.9761V58.6906C76.3387 60.1197 75.5763 61.4402 74.3387 62.1547L54.6673 73.512C53.4297 74.2265 51.9049 74.2265 50.6673 73.512L30.996 62.1547C29.7584 61.4402 28.996 60.1197 28.996 58.6906V35.9761C28.996 34.547 29.7584 33.2265 30.996 32.512L50.6673 21.1547Z" fill="url(#paint1_linear_0_194)" fill-opacity="0.5"/>
  <path d="M73.0003 4.57735C73.6191 4.22008 74.3815 4.22008 75.0003 4.57735L82.8153 9.08932C83.4341 9.44658 83.8153 10.1068 83.8153 10.8214V19.8453C83.8153 20.5598 83.4341 21.2201 82.8153 21.5774L75.0003 26.0893C74.3815 26.4466 73.6191 26.4466 73.0003 26.0893L65.1854 21.5773C64.5666 21.2201 64.1854 20.5598 64.1854 19.8453V10.8214C64.1854 10.1068 64.5666 9.44658 65.1854 9.08932L73.0003 4.57735Z" fill="url(#paint2_linear_0_194)" fill-opacity="0.4"/>
  <path d="M13.0003 36.5773C13.6191 36.2201 14.3815 36.2201 15.0003 36.5774L22.8153 41.0893C23.4341 41.4466 23.8153 42.1068 23.8153 42.8214V51.8453C23.8153 52.5598 23.4341 53.2201 22.8153 53.5774L15.0003 58.0893C14.3815 58.4466 13.6191 58.4466 13.0003 58.0893L5.18537 53.5773C4.56657 53.2201 4.18537 52.5598 4.18537 51.8453V42.8214C4.18537 42.1068 4.56657 41.4466 5.18537 41.0893L13.0003 36.5773Z" fill="url(#paint3_linear_0_194)" fill-opacity="0.3"/>
  <path d="M73.0003 68.5773C73.6191 68.2201 74.3815 68.2201 75.0003 68.5774L82.8153 73.0893C83.4341 73.4466 83.8153 74.1068 83.8153 74.8214V83.8453C83.8153 84.5598 83.4341 85.2201 82.8153 85.5774L75.0003 90.0893C74.3815 90.4466 73.6191 90.4466 73.0003 90.0893L65.1854 85.5773C64.5666 85.2201 64.1854 84.5598 64.1854 83.8453V74.8214C64.1854 74.1068 64.5666 73.4466 65.1854 73.0893L73.0003 68.5773Z" fill="url(#paint4_linear_0_194)" fill-opacity="0.3"/>
  <path d="M51.6673 32.5773C52.2861 32.2201 53.0485 32.2201 53.6673 32.5774L64.9464 39.0893C65.5652 39.4466 65.9464 40.1068 65.9464 40.8214V53.8453C65.9464 54.5598 65.5652 55.2201 64.9464 55.5774L53.6673 62.0893C53.0485 62.4466 52.2861 62.4466 51.6673 62.0893L40.3883 55.5773C39.7695 55.2201 39.3883 54.5598 39.3883 53.8453V40.8214C39.3883 40.1068 39.7695 39.4466 40.3883 39.0893L51.6673 32.5773Z" fill="url(#paint5_linear_0_194)"/>
  <defs>
    <linearGradient id="paint0_linear_0_194" x1="8.86369" y1="48.4509" x2="98.7061" y2="48.4509" gradientUnits="userSpaceOnUse">
      <stop stop-color="#EE2D82"/>
      <stop offset="1" stop-color="#FCF3C3"/>
    </linearGradient>
    <linearGradient id="paint1_linear_0_194" x1="22.2275" y1="48.11" x2="84.6604" y2="48.11" gradientUnits="userSpaceOnUse">
      <stop stop-color="#EE2D82"/>
      <stop offset="1" stop-color="#FCF3C3"/>
    </linearGradient>
    <linearGradient id="paint2_linear_0_194" x1="61.3789" y1="15.6553" x2="87.2657" y2="15.6553" gradientUnits="userSpaceOnUse">
      <stop stop-color="#EE2D82"/>
      <stop offset="1" stop-color="#FCF3C3"/>
    </linearGradient>
    <linearGradient id="paint3_linear_0_194" x1="1.37894" y1="47.6553" x2="27.2657" y2="47.6553" gradientUnits="userSpaceOnUse">
      <stop stop-color="#EE2D82"/>
      <stop offset="1" stop-color="#FCF3C3"/>
    </linearGradient>
    <linearGradient id="paint4_linear_0_194" x1="61.3789" y1="79.6553" x2="87.2657" y2="79.6553" gradientUnits="userSpaceOnUse">
      <stop stop-color="#EE2D82"/>
      <stop offset="1" stop-color="#FCF3C3"/>
    </linearGradient>
    <linearGradient id="paint5_linear_0_194" x1="35.5913" y1="47.769" x2="70.6146" y2="47.769" gradientUnits="userSpaceOnUse">
      <stop stop-color="#EE2D82"/>
      <stop offset="1" stop-color="#FCF3C3"/>
    </linearGradient>
  </defs>
</svg>