<svg xmlns="http://www.w3.org/2000/svg" width="14" height="14" viewBox="0 0 14 14" fill="none">
  <path d="M6.41675 9.9165H7.58341V6.4165H6.41675V9.9165ZM7.00008 5.24984C7.16536 5.24984 7.304 5.19384 7.416 5.08184C7.528 4.96984 7.5838 4.83139 7.58341 4.6665C7.58341 4.50123 7.52741 4.36278 7.41541 4.25117C7.30341 4.13956 7.16497 4.08356 7.00008 4.08317C6.8348 4.08317 6.69636 4.13917 6.58475 4.25117C6.47314 4.36317 6.41714 4.50161 6.41675 4.6665C6.41675 4.83178 6.47275 4.97042 6.58475 5.08242C6.69675 5.19442 6.83519 5.25023 7.00008 5.24984ZM7.00008 12.8332C6.19314 12.8332 5.4348 12.6799 4.72508 12.3735C4.01536 12.0671 3.398 11.6515 2.873 11.1269C2.348 10.6019 1.93247 9.98456 1.62641 9.27484C1.32036 8.56511 1.16714 7.80678 1.16675 6.99984C1.16675 6.19289 1.31997 5.43456 1.62641 4.72484C1.93286 4.01512 2.34839 3.39775 2.873 2.87275C3.398 2.34775 4.01536 1.93223 4.72508 1.62617C5.4348 1.32012 6.19314 1.16689 7.00008 1.1665C7.80703 1.1665 8.56536 1.31973 9.27508 1.62617C9.9848 1.93262 10.6022 2.34814 11.1272 2.87275C11.6522 3.39775 12.0679 4.01512 12.3743 4.72484C12.6808 5.43456 12.8338 6.19289 12.8334 6.99984C12.8334 7.80678 12.6802 8.56511 12.3737 9.27484C12.0673 9.98456 11.6518 10.6019 11.1272 11.1269C10.6022 11.6519 9.9848 12.0676 9.27508 12.3741C8.56536 12.6805 7.80703 12.8336 7.00008 12.8332Z" fill="#7F93A2"/>
</svg>