<svg width="65" height="64" viewBox="0 0 65 64" fill="none" xmlns="http://www.w3.org/2000/svg">
<circle cx="26.6428" cy="26.3095" r="12.5" transform="rotate(-15 26.6428 26.3095)" fill="#FFBEBE" fill-opacity="0.9"/>
<circle cx="26.6428" cy="26.3095" r="12.5" transform="rotate(-15 26.6428 26.3095)" fill="url(#paint0_linear_1_566)" fill-opacity="0.3"/>
<circle cx="26.6428" cy="26.3094" r="10.5" transform="rotate(-15 26.6428 26.3094)" fill="url(#paint1_linear_1_566)" fill-opacity="0.5"/>
<path d="M31.1869 27.9599C31.3801 28.6812 31.3187 29.3354 31.0025 29.9225C30.6864 30.5097 30.1621 30.969 29.4296 31.3006C29.3894 31.3307 29.3741 31.3638 29.3837 31.3998L29.6328 32.2752C29.6449 32.3203 29.6365 32.3612 29.6077 32.3979C29.5903 32.4412 29.5591 32.4689 29.514 32.481L28.1617 32.8433C28.1166 32.8554 28.0712 32.8482 28.0255 32.8218C27.9912 32.802 27.968 32.7696 27.9559 32.7245L27.7303 31.8284C27.7206 31.7923 27.6909 31.7713 27.6409 31.7654C26.8336 31.8174 26.145 31.6637 25.5752 31.3043C25.0145 30.9424 24.6375 30.4009 24.4442 29.6797L24.3645 29.3822C24.3524 29.3371 24.3563 29.2974 24.3761 29.2631C24.4025 29.2174 24.4382 29.1885 24.4833 29.1764L25.9438 28.7851C25.9888 28.773 26.0297 28.7814 26.0664 28.8102C26.1097 28.8276 26.1374 28.8588 26.1495 28.9039L26.2039 29.1067C26.3005 29.4673 26.5404 29.7316 26.9236 29.8994C27.3043 30.0583 27.7697 30.0641 28.3196 29.9167C28.7794 29.7935 29.0909 29.6038 29.2541 29.3475C29.4239 29.0797 29.469 28.7971 29.3893 28.4996C29.3313 28.2832 29.2154 28.121 29.0415 28.013C28.8652 27.896 28.6408 27.816 28.3684 27.773C28.1026 27.7186 27.6862 27.6611 27.1192 27.6005C26.4777 27.5501 25.9296 27.4699 25.4749 27.3599C25.0203 27.2498 24.6037 27.0474 24.2252 26.7526C23.8532 26.4464 23.5936 26.0184 23.4463 25.4685C23.2603 24.7743 23.3142 24.1462 23.6081 23.5844C23.9087 23.011 24.3969 22.5614 25.0729 22.2353C25.1131 22.2052 25.1284 22.1721 25.1188 22.136L24.8272 21.1561C24.8151 21.111 24.819 21.0713 24.8388 21.0371C24.8652 20.9913 24.9009 20.9624 24.946 20.9504L26.2983 20.588C26.3434 20.5759 26.3843 20.5843 26.421 20.6131C26.4643 20.6305 26.492 20.6617 26.504 20.7068L26.7623 21.7246C26.7719 21.7607 26.8017 21.7817 26.8516 21.7877C27.641 21.7404 28.3242 21.9101 28.9012 22.2965C29.4758 22.674 29.8597 23.2234 30.053 23.9446L30.1073 24.1474C30.1194 24.1925 30.1122 24.2379 30.0858 24.2836C30.066 24.3179 30.0336 24.3411 29.9885 24.3532L28.5145 24.7482C28.4694 24.7602 28.4253 24.7576 28.3819 24.7402C28.3452 24.7114 28.3208 24.6744 28.3088 24.6294L28.2798 24.5212C28.1783 24.1425 27.9438 23.8623 27.5763 23.6806C27.2063 23.4899 26.7644 23.4634 26.2505 23.601C25.8448 23.7097 25.5534 23.8844 25.3763 24.1251C25.1993 24.3658 25.153 24.644 25.2376 24.9595C25.298 25.1849 25.4118 25.3573 25.5791 25.4767C25.7554 25.5938 25.9911 25.6803 26.2864 25.7365C26.5817 25.7927 27.0308 25.8462 27.6339 25.8972C28.2983 25.9608 28.8305 26.0356 29.2304 26.1217C29.6303 26.2078 30.0183 26.3937 30.3944 26.6794C30.7705 26.9651 31.0347 27.392 31.1869 27.9599Z" fill="white"/>
<g opacity="0.9">
<circle cx="46.4635" cy="19.13" r="9.08761" transform="rotate(15 46.4635 19.13)" fill="#FFBEBE"/>
<circle cx="46.4635" cy="19.13" r="9.08761" transform="rotate(15 46.4635 19.13)" fill="url(#paint2_linear_1_566)" fill-opacity="0.3"/>
<circle cx="46.4637" cy="19.13" r="7.63359" transform="rotate(15 46.4637 19.13)" fill="url(#paint3_linear_1_566)" fill-opacity="0.5"/>
<path d="M48.7236 21.8208C48.5831 22.3452 48.3066 22.7347 47.8941 22.9895C47.4817 23.2443 46.9846 23.3429 46.4029 23.2854C46.3666 23.2897 46.3449 23.305 46.3379 23.3312L46.1765 23.9729C46.1677 24.0056 46.1476 24.0283 46.1161 24.041C46.0894 24.0619 46.0597 24.068 46.0269 24.0592L45.0438 23.7958C45.011 23.787 44.985 23.766 44.9658 23.7328C44.9515 23.7078 44.9486 23.679 44.9574 23.6462L45.1411 23C45.1481 22.9738 45.137 22.9497 45.1078 22.9278C44.5805 22.6671 44.2029 22.3201 43.9748 21.8866C43.7533 21.455 43.7127 20.977 43.8532 20.4526L43.9112 20.2363C43.92 20.2036 43.9368 20.18 43.9618 20.1656C43.995 20.1464 44.028 20.1412 44.0608 20.15L45.1226 20.4345C45.1553 20.4432 45.178 20.4634 45.1907 20.4949C45.2116 20.5216 45.2177 20.5513 45.2089 20.5841L45.1694 20.7315C45.0992 20.9937 45.1541 21.2473 45.3344 21.4923C45.5164 21.7307 45.8072 21.9035 46.2071 22.0106C46.5413 22.1002 46.8064 22.0939 47.0024 21.9919C47.2066 21.885 47.3377 21.7235 47.3957 21.5072C47.4378 21.3499 47.4238 21.2056 47.3536 21.0744C47.2851 20.9366 47.1729 20.8047 47.017 20.6787C46.8695 20.5478 46.6282 20.3602 46.2932 20.1159C45.9076 19.851 45.5917 19.6013 45.3454 19.3667C45.0992 19.1321 44.9105 18.8533 44.7793 18.5301C44.6565 18.2021 44.6486 17.8383 44.7557 17.4385C44.8909 16.9338 45.1532 16.558 45.5425 16.3111C45.9401 16.0593 46.411 15.9537 46.9551 15.9941C46.9914 15.9898 47.0131 15.9745 47.0201 15.9483L47.1927 15.2253C47.2015 15.1926 47.2184 15.169 47.2433 15.1546C47.2765 15.1354 47.3095 15.1302 47.3423 15.139L48.3254 15.4024C48.3582 15.4112 48.3809 15.4313 48.3936 15.4628C48.4145 15.4895 48.4206 15.5192 48.4118 15.552L48.2044 16.2867C48.1974 16.3129 48.2085 16.337 48.2377 16.3589C48.7519 16.616 49.1204 16.9712 49.3432 17.4243C49.5677 17.8708 49.6098 18.3562 49.4693 18.8806L49.4298 19.0281C49.421 19.0608 49.4 19.0868 49.3667 19.106C49.3418 19.1204 49.313 19.1232 49.2802 19.1144L48.2086 18.8273C48.1758 18.8185 48.1489 18.8008 48.128 18.7741C48.1154 18.7426 48.1134 18.7105 48.1222 18.6777L48.1433 18.599C48.217 18.3238 48.1712 18.0621 48.0059 17.8141C47.8423 17.5595 47.5737 17.3822 47.2001 17.2821C46.9052 17.203 46.6582 17.2071 46.4592 17.2943C46.2602 17.3815 46.13 17.5398 46.0685 17.7691C46.0246 17.933 46.0336 18.0829 46.0955 18.2189C46.164 18.3567 46.281 18.4969 46.4465 18.6396C46.6119 18.7823 46.8753 18.9793 47.2364 19.2306C47.6317 19.5122 47.9395 19.7527 48.16 19.9523C48.3805 20.1519 48.5572 20.4099 48.6902 20.7266C48.8231 21.0432 48.8342 21.4079 48.7236 21.8208Z" fill="white"/>
</g>
<mask id="mask0_1_566" style="mask-type:alpha" maskUnits="userSpaceOnUse" x="11" y="34" width="44" height="25">
<path d="M54.1719 34.2798L11.7258 33.9999L11.4483 50.9359C11.385 54.8014 14.4676 57.9556 18.3335 57.9811L46.7799 58.1687C50.6458 58.1942 53.8311 55.0812 53.8944 51.2158L54.1719 34.2798Z" fill="url(#paint4_linear_1_566)"/>
</mask>
<g mask="url(#mask0_1_566)">
<rect width="42.447" height="23.9383" transform="matrix(-0.999978 -0.00659332 -0.0163815 0.999866 54.1719 34.2798)" fill="#D1B5CC" fill-opacity="0.6"/>
<rect width="42.447" height="23.9383" transform="matrix(-0.999978 -0.00659332 -0.0163815 0.999866 54.1719 34.2798)" fill="url(#paint5_linear_1_566)" fill-opacity="0.3"/>
<rect width="31.4116" height="23.9204" transform="matrix(-0.999974 -0.0072597 -0.0148781 0.999889 43.1016 34.2456)" fill="url(#paint6_linear_1_566)" fill-opacity="0.3"/>
<rect width="31.4116" height="23.9204" transform="matrix(-0.999974 -0.0072597 -0.0148781 0.999889 43.1016 34.2456)" fill="url(#paint7_linear_1_566)" fill-opacity="0.3"/>
</g>
<defs>
<linearGradient id="paint0_linear_1_566" x1="14.1428" y1="26.3095" x2="39.1428" y2="26.3095" gradientUnits="userSpaceOnUse">
<stop stop-color="#EE2D82"/>
<stop offset="1" stop-color="#FCF3C3"/>
</linearGradient>
<linearGradient id="paint1_linear_1_566" x1="16.1428" y1="26.3094" x2="37.1428" y2="26.3094" gradientUnits="userSpaceOnUse">
<stop stop-color="#EE2D82"/>
<stop offset="1" stop-color="#FCF3C3"/>
</linearGradient>
<linearGradient id="paint2_linear_1_566" x1="37.3759" y1="19.13" x2="55.5511" y2="19.13" gradientUnits="userSpaceOnUse">
<stop stop-color="#EE2D82"/>
<stop offset="1" stop-color="#FCF3C3"/>
</linearGradient>
<linearGradient id="paint3_linear_1_566" x1="38.8301" y1="19.13" x2="54.0973" y2="19.13" gradientUnits="userSpaceOnUse">
<stop stop-color="#EE2D82"/>
<stop offset="1" stop-color="#FCF3C3"/>
</linearGradient>
<linearGradient id="paint4_linear_1_566" x1="53.9758" y1="46.2473" x2="11.5365" y2="45.552" gradientUnits="userSpaceOnUse">
<stop stop-color="#EE2D82"/>
<stop offset="1" stop-color="#FCF3C3"/>
</linearGradient>
<linearGradient id="paint5_linear_1_566" x1="0" y1="11.9691" x2="42.447" y2="11.9691" gradientUnits="userSpaceOnUse">
<stop stop-color="#EE2D82"/>
<stop offset="1" stop-color="#FCF3C3"/>
</linearGradient>
<linearGradient id="paint6_linear_1_566" x1="0" y1="11.9602" x2="31.4116" y2="11.9602" gradientUnits="userSpaceOnUse">
<stop stop-color="#EE2D82"/>
<stop offset="1" stop-color="#FCF3C3"/>
</linearGradient>
<linearGradient id="paint7_linear_1_566" x1="0" y1="11.9602" x2="31.4116" y2="11.9602" gradientUnits="userSpaceOnUse">
<stop stop-color="#EE2D82"/>
<stop offset="1" stop-color="#FCF3C3"/>
</linearGradient>
</defs>
</svg>
